<?xml version="1.0" encoding="UTF-8" standalone="no"?>
<!-- Created with Inkscape (http://www.inkscape.org/) -->

<svg
   xmlns:dc="http://purl.org/dc/elements/1.1/"
   xmlns:cc="http://creativecommons.org/ns#"
   xmlns:rdf="http://www.w3.org/1999/02/22-rdf-syntax-ns#"
   xmlns:svg="http://www.w3.org/2000/svg"
   xmlns="http://www.w3.org/2000/svg"
   xmlns:sodipodi="http://sodipodi.sourceforge.net/DTD/sodipodi-0.dtd"
   xmlns:inkscape="http://www.inkscape.org/namespaces/inkscape"
   width="88.709274mm"
   height="88.708725mm"
   viewBox="0 0 314.3242 314.32226"
   id="svg2"
   version="1.1"
   inkscape:version="0.91 r13725"
   sodipodi:docname="active_husky.svg">
  <defs
     id="defs4" />
  <sodipodi:namedview
     id="base"
     pagecolor="#ffffff"
     bordercolor="#666666"
     borderopacity="1.0"
     inkscape:pageopacity="0.0"
     inkscape:pageshadow="2"
     inkscape:zoom="1.453917"
     inkscape:cx="184.23228"
     inkscape:cy="126.64868"
     inkscape:document-units="px"
     inkscape:current-layer="layer1"
     showgrid="false"
     fit-margin-top="0"
     fit-margin-left="0"
     fit-margin-right="0"
     fit-margin-bottom="0"
     inkscape:window-width="1366"
     inkscape:window-height="744"
     inkscape:window-x="0"
     inkscape:window-y="24"
     inkscape:window-maximized="1" />
  <metadata
     id="metadata7">
    <rdf:RDF>
      <cc:Work
         rdf:about="">
        <dc:format>image/svg+xml</dc:format>
        <dc:type
           rdf:resource="http://purl.org/dc/dcmitype/StillImage" />
        <dc:title></dc:title>
      </cc:Work>
    </rdf:RDF>
  </metadata>
  <g
     inkscape:label="active"
     inkscape:groupmode="layer"
     id="layer1"
     transform="translate(-269.33305,-359.71643)">
    <path
       style="opacity:1;fill:#ffffff;stroke:none;stroke-width:16"
       d="M 122.25586,-54.628906 A 157.16164,157.16164 0 0 0 -34.90625,102.5332 157.16164,157.16164 0 0 0 122.25586,259.69336 157.16164,157.16164 0 0 0 279.41797,102.5332 157.16164,157.16164 0 0 0 122.25586,-54.628906 Z m 76.95117,54.63281225 c 0.6632,-0.06855254 1.48838,0.88970386 2.61133,2.79296875 l 2.2793,3.8652344 1.11523,-2.7246094 1.11328,-2.7265625 1.18164,2.59375 c 0.64971,1.4259599 1.18164,4.1171589 1.18164,5.9804687 0,5.3781398 1.62649,8.2870938 5.83399,10.4335938 4.79077,2.44407 8.76999,7.008351 9.66601,11.087891 0.56148,2.556409 1.69449,3.518503 6.96485,5.908203 3.46167,1.56959 7.92292,3.391688 9.91406,4.048828 4.32553,1.42755 4.47093,2.70652 1.02539,9.037109 -3.21622,5.90926 -5.53976,7.001953 -14.88086,7.001953 -7.70418,0 -10.51756,1.287373 -10.5293,4.820313 -0.0121,3.63272 -2.15145,9.179687 -3.54101,9.179687 -0.79915,0 -1.45313,0.634537 -1.45313,1.410157 0,0.77562 -1.35043,4.26312 -3,7.75 -1.64957,3.486889 -2.99957,7.089189 -3,8.005859 -4.3e-4,0.91666 -0.46602,1.822009 -1.03515,2.011719 -0.56913,0.18971 -1.62516,2.880749 -2.34571,5.980469 -1.4798,6.365902 -5.75887,14.289312 -8.70507,16.119142 -4.4939,2.79106 -9.80378,12.30862 -12.77735,22.89844 -4.87602,17.36505 -7.42466,31.61558 -6.87695,38.46289 0.57703,7.21393 4.49435,16.46156 8.90625,21.02539 3.54553,3.66763 2.9983,5.56195 -1.51758,5.25781 -8.48274,-0.5713 -11.29688,0.0104 -12.4668,2.57812 -1.1958,2.6245 -0.97652,2.5902 -11.4082,1.76563 -4.60706,-0.36416 -4.75443,-0.47885 -5.85351,-4.56055 -0.6201,-2.30286 -1.9095,-5.31527 -2.86719,-6.69531 -1.56258,-2.25172 -1.69765,-4.79502 -1.30274,-24.78906 0.24204,-12.25406 0.10759,-23.05406 -0.29883,-24 -0.40641,-0.94595 -0.63991,-2.95821 -0.51953,-4.47071 0.12038,-1.5125 -0.26597,-2.75 -0.85742,-2.75 -0.59146,0 -1.07422,-0.62478 -1.07422,-1.38867 0,-0.76389 -0.5625,-1.33116 -1.25,-1.25976 -5.01737,0.52102 -15.82854,-1.77723 -20.35547,-4.32813 -4.1893,-2.36067 -5.7234,-2.73899 -8.54101,-2.10351 -2.55869,0.57707 -4.31243,0.30415 -6.87891,-1.07227 -1.89447,-1.01601 -4.3504,-1.86844 -5.45898,-1.89258 -1.10858,-0.0241 -3.815627,-0.71652 -6.015627,-1.53906 -2.2,-0.82255 -4.782081,-1.67595 -5.738281,-1.89648 -0.95621,-0.22053 -3.314555,-1.60153 -5.240234,-3.07032 -1.94716,-1.48517 -4.174822,-2.41203 -5.019532,-2.08789 -0.83539,0.32057 -2.70324,0.13223 -4.15039,-0.41797 -3.54603,-1.3482 -5.506794,0.53629 -7.658204,7.36133 -2.397299,7.60513 -7.018321,14.05971 -13.80664,19.2832 -3.23772,2.49136 -5.886719,4.95285 -5.886719,5.47071 0,0.51785 -0.622522,0.9414 -1.382812,0.9414 -1.96786,0 -9.281327,7.57102 -12.316407,12.75 -2.262309,3.86034 -2.497115,5.10461 -1.947265,10.36524 0.81151,7.76416 1.726004,9.2921 6.396484,10.69141 2.12788,0.63752 4.922035,2.2805 6.208985,3.65039 2.236759,2.38092 2.257446,2.52569 0.441406,3.26757 -1.04489,0.42686 -5.497522,0.77539 -9.894532,0.77539 l -7.996093,0 -2.820313,-9 c -1.55171,-4.95 -3.050448,-9.675 -3.330078,-10.5 -0.40476,-1.19417 -0.900514,-1.01812 -2.433594,0.86133 -1.44953,1.77703 -1.925781,3.92628 -1.925781,8.69141 l 0,6.33008 5.5,4.29492 c 3.025,2.36256 5.5,4.62305 5.5,5.02344 0,1.34396 -3.458244,2.59138 -9.152344,3.30078 -5.342819,0.66563 -5.818987,0.54135 -8.748047,-2.25781 -4.0563593,-3.87648 -4.6569544,-8.51051 -3.1406245,-24.23243 0.9125099,-9.4612 0.9126562,-12.47373 0.00391,-13.03515 -0.64976,-0.40157 -1.4156751,-2.81687 -1.703125,-5.36719 -0.39213,-3.47889 -0.824772,-4.38609 -1.7324219,-3.63281 C 2.504917,152.70003 0.21307067,139.96604 0.99414062,133.37109 1.3738506,130.16506 1.21547,128.30273 0.5625,128.30273 c -1.28714992,0 -0.28485673,-4.8761 2.1894531,-10.64843 0.99662,-2.32503 1.4340962,-4.36717 0.9726563,-4.53907 -0.46144,-0.1719 0.2943744,-3.9125 1.6777344,-8.3125 C 9.1475435,92.890525 9.8207302,91.299303 12.4375,88.189453 c 1.31742,-1.56567 2.134113,-3.269899 1.814453,-3.787109 -0.31966,-0.51722 0.434995,-1.762982 1.677735,-2.769532 1.242739,-1.006539 3.486138,-3.7183 4.986328,-6.02539 2.762159,-4.24787 8.965903,-8.533717 14.064453,-9.716797 1.53499,-0.35619 2.519403,-1.083308 2.189453,-1.617187 -0.36611,-0.59238 2.139131,-0.970704 6.425781,-0.970704 3.86323,0 8.951874,-0.649699 11.308594,-1.443359 5.79144,-1.95035 14.826647,-2.175851 29.785156,-0.744141 6.875,0.65803 19.371437,1.145082 27.771487,1.082032 14.32424,-0.10753 15.49046,-0.263042 18.76953,-2.488282 3.8933,-2.642059 10.56531,-3.351495 18.95898,-2.015625 4.35485,0.69308 5.36243,0.510452 7.81055,-1.417968 1.60995,-1.26818 2.5798,-2.81646 2.26953,-3.625 -0.34338,-0.89483 0.45831,-1.788094 2.18945,-2.439453 1.502,-0.56514 4.40655,-2.656255 6.45508,-4.646485 2.81365,-2.73359 3.46155,-3.936276 2.64844,-4.916015 -0.81777,-0.98536 -0.43105,-1.589852 1.60938,-2.519532 1.56945,-0.71509 3.69642,-3.219754 5.11914,-6.027344 1.33898,-2.642359 3.32611,-5.362318 4.41601,-6.042968 1.0899,-0.68066 1.98242,-1.766223 1.98242,-2.414063 0,-0.64784 1.51366,-2.114692 3.36328,-3.257812 2.22358,-1.37425 3.94492,-3.602589 5.08204,-6.580078 0.94587,-2.47673 2.09265,-4.5039066 2.54882,-4.5039066 0.45617,0 1.11644,-1.6977245 1.4668,-3.7714844 0.61756,-3.6553442 1.20396,-5.43920477 2.05664,-5.52734375 z m 1.64453,2.79882815 -0.0801,4.1660156 c -0.045,2.3005299 0.42876,4.336935 1.0586,4.546875 0.73116,0.24372 0.25691,1.800235 -1.32227,4.333984 -3.04784,4.89014 -3.99352,7.362049 -3.26367,8.542969 0.8779,1.42046 6.06919,1.0687 7.37109,-0.5 1.63026,-1.96434 -0.51697,-3.174121 -2.58593,-1.457031 -1.34695,1.11786 -1.51628,1.022827 -1.19141,-0.664063 0.20846,-1.08249 1.04777,-1.978084 1.86523,-1.990234 1.94252,-0.0289 1.6877,-8.871099 -0.39257,-13.6367188 l -1.45899,-3.3417968 z m 6.45508,7.4999996 c -0.21089,0 -0.59848,1.125 -0.86133,2.5 -0.26285,1.375 -0.0909,2.5 0.38281,2.5 0.47373,0 0.86133,-1.125 0.86133,-2.5 0,-1.375 -0.17193,-2.5 -0.38281,-2.5 z m 13,16.339844 c -0.22449,-0.02329 -0.46084,0.06337 -0.73437,0.232422 -0.62017,0.38328 -0.56415,1.106996 0.15429,1.972656 0.62406,0.75194 0.80186,1.907337 0.39453,2.566406 -0.46851,0.75808 -0.31629,0.935765 0.41407,0.484376 0.69098,-0.42705 1.15429,-0.06411 1.15429,0.904296 0,0.88992 0.43196,1.350378 0.96094,1.023438 0.61335,-0.37906 0.60317,-1.539535 -0.0293,-3.203125 -1.08173,-2.845185 -1.64098,-3.910614 -2.31445,-3.980469 z m -2.64844,2.660156 c -0.53274,0 -0.96875,0.675 -0.96875,1.5 0,0.825 0.17643,1.5 0.39258,1.5 0.21616,0 0.65216,-0.675 0.96875,-1.5 0.31658,-0.825 0.14015,-1.5 -0.39258,-1.5 z m -3.63281,4.382813 c -0.30404,0.02668 -0.33594,0.545294 -0.33594,1.484375 0,1.60456 -0.51071,2.171254 -1.76367,1.958984 -1.01466,-0.1719 -3.56347,1.50097 -6,3.9375 -4.16723,4.16723 -5.41596,7.676453 -3.01562,8.476563 0.92162,0.30721 0.81837,1.432484 -0.42188,4.589843 -1.55796,3.96618 -1.54794,4.23437 0.18555,5.16211 1.0055,0.53813 2.96204,3.009568 4.34961,5.492187 l 2.52344,4.513672 -2.33399,0.585938 c -2.56174,0.64295 -3.48894,2.936537 -3.50977,8.685547 l -0.0137,3.771484 -4.09765,-2.089844 c -2.25333,-1.14956 -4.69289,-1.861761 -5.42188,-1.582031 -1.56905,0.60211 -0.89076,4.046133 1.12696,5.720703 1.89778,1.57502 1.75644,5.922813 -0.24024,7.382813 -1.40713,1.02893 -1.46398,1.705317 -0.41016,4.898437 1.04283,3.15981 0.97769,4.080192 -0.44531,6.251952 -1.55359,2.37109 -1.75634,2.4238 -2.95312,0.78711 -1.19326,-1.63188 -1.41155,-1.56521 -3.04883,0.93359 -1.58993,2.42655 -1.88266,2.52921 -2.97656,1.03321 -0.93294,-1.27588 -2.0585,-1.50067 -4.87305,-0.97266 -2.01304,0.37765 -3.66016,1.1653 -3.66016,1.75 0,0.63001 -1.00309,0.8112 -2.46093,0.44531 -1.84419,-0.46286 -2.7306,-0.10948 -3.54493,1.41211 -1.39529,2.60713 -0.34502,4.52473 1.59571,2.91407 1.19077,-0.98825 1.41015,-0.12524 1.41015,5.5332 0,5.29295 -0.64375,8.17378 -3.05859,13.67578 -1.68245,3.83331 -4.00774,10.84799 -5.16602,15.58789 -1.84579,7.55339 -1.9583,9.32615 -0.91992,14.35352 0.68351,3.30921 0.90405,8.12195 0.52149,11.37695 -0.39766,3.38349 -0.23552,6.52318 0.40625,7.84375 0.58858,1.21113 1.60334,5.24062 2.25586,8.95312 0.7941,4.51804 1.64599,6.75 2.57421,6.75 0.76272,0 1.38672,0.675 1.38672,1.5 0,0.86088 0.90241,1.5 2.11719,1.5 1.65535,0 1.99621,-0.45567 1.56836,-2.09179 -0.50717,-1.93941 -0.41796,-1.97589 1.21289,-0.5 1.94992,1.76466 4.10156,2.10553 4.10156,0.65039 0,-0.51754 -0.45581,-1.22359 -1.01367,-1.56836 -1.81839,-1.12383 -4.66886,-7.83933 -6.43555,-15.16602 -1.62027,-6.7195 -1.62594,-7.88035 -0.10351,-18.26172 0.8942,-6.09743 2.69813,-14.79182 4.00976,-19.32031 1.31164,-4.52848 2.20856,-8.40862 1.99414,-8.62304 -0.80006,-0.80007 -5.32341,2.90356 -5.94726,4.86914 -0.35631,1.12264 -1.03207,1.80211 -1.50195,1.51171 -1.17979,-0.72915 0.42765,-5.88935 2.92773,-9.40039 1.13903,-1.59961 2.07031,-3.41529 2.07031,-4.03515 0,-0.61985 0.675,-1.38655 1.5,-1.70313 0.825,-0.31659 1.5,-1.37737 1.5,-2.35742 0,-1.08312 0.68656,-1.727 1.75,-1.64258 1.11898,0.0888 1.86697,-0.69245 2.07617,-2.16601 0.19468,-1.37125 1.35712,-2.69513 2.87305,-3.27149 1.40082,-0.53259 3.42783,-2.08706 4.50391,-3.45508 1.07608,-1.36801 2.33203,-2.25631 2.79101,-1.97265 1.09846,0.67888 5.05782,-5.77971 5.33789,-8.70703 0.1205,-1.259503 0.71801,-3.189066 1.32618,-4.289066 0.60817,-1.1 1.41896,-3.4625 1.80273,-5.25 0.38378,-1.7875 1.0417,-3.25 1.46094,-3.25 0.41924,0 1.3342,-1.9125 2.0332,-4.25 0.699,-2.337499 2.34514,-6.372577 3.6582,-8.966796 1.31305,-2.59421 2.38672,-5.687417 2.38672,-6.873047 0,-1.74167 0.27092,-1.929855 1.41016,-0.984375 1.14912,0.95369 1.53747,0.589572 2.09766,-1.960938 0.53547,-2.438 0.2165,-3.629644 -1.44336,-5.396484 -3.47531,-3.6993 -0.99577,-4.723263 9.55664,-3.945313 9.54312,0.70354 10.43639,0.0075 2.71289,-2.115234 -3.20554,-0.88088 -3.99158,-1.35652 -2.33399,-1.412109 1.375,-0.0461 4.24062,0.397801 6.36719,0.988281 2.12658,0.59047 4.93236,0.805795 6.23633,0.478515 3.07365,-0.77143 6.01304,-5.106119 4.62305,-6.818359 -0.55588,-0.68474 -1.17247,-2.036356 -1.36914,-3.003906 -0.47968,-2.35966 -12.85743,-8.305061 -12.85743,-6.175781 0,1.267069 -0.35947,1.245729 -2.49023,-0.150391 -2.30971,-1.51338 -2.53628,-1.509648 -3.13281,0.04492 -0.54737,1.42643 -1.14357,1.190139 -4.00977,-1.587891 -1.79966,-1.744301 -2.64034,-2.522583 -3.03125,-2.488281 z M 24.414062,85.462891 c -0.110956,-0.0025 -0.302075,0.07836 -0.570312,0.24414 -1.53217,0.94693 -1.473617,3.31487 0.0957,3.875 0.87526,0.3124 0.599458,1.162455 -0.919922,2.833985 -1.50167,1.65204 -2.012,3.197521 -1.65625,5.019531 0.28273,1.44803 0.02173,2.936663 -0.580078,3.308593 -0.60179,0.37193 -1.09375,1.16871 -1.09375,1.77148 0,0.60279 0.9,0.2826 2,-0.71289 1.19465,-1.08114 2,-3.080949 2,-4.964839 0,-1.73463 0.66124,-4.02613 1.46875,-5.09375 1.92683,-2.5475 1.915076,-4.441407 -0.02734,-4.441407 -0.92379,0 -1.268503,-0.470187 -0.845703,-1.154296 0.2763,-0.447063 0.313834,-0.68146 0.128906,-0.685547 z m -3.177734,20.249999 c -0.246697,0.0355 -0.59751,0.2169 -1.046875,0.58984 -1.81805,1.50884 -1.98413,5.66735 -0.25,6.25977 0.99203,0.33891 0.977268,1.13065 -0.07031,3.83398 -0.72601,1.87346 -1.518999,5.43125 -1.761719,7.90625 l -0.441406,4.5 1.703125,-3.5 c 0.93619,-1.925 1.755202,-3.95 1.820312,-4.5 0.0651,-0.55 0.387997,-1.9 0.716797,-3 1.86573,-6.24159 1.805825,-7.26125 -0.458984,-7.85351 -1.76195,-0.46076 -1.967245,-0.83744 -0.990235,-1.81445 1.318913,-1.31892 1.519389,-2.52836 0.779297,-2.42188 z m 48.498047,4.36719 c -1.202498,0.1302 -1.983442,1.56783 -3.455078,5.96289 -1.39524,4.16688 -2.6204,6.24367 -3.6875,6.25 -0.90642,0.005 -2.42129,1.83526 -3.5,4.22851 -2.31649,5.13946 -6.256861,9.98929 -7.494141,9.22461 -0.49987,-0.30894 -0.908203,0.14059 -0.908203,0.99805 0,2.28184 1.290969,1.91504 4.199219,-1.19141 1.416,-1.5125 3.506931,-4.55 4.644531,-6.75 1.13759,-2.2 2.087028,-3.4375 2.111328,-2.75 0.15009,4.24502 4.55141,-3.09102 5.9375,-9.89648 0.58278,-2.86132 1.191022,-3.43775 4.144531,-3.93164 3.40979,-0.57019 2.802975,-1.46312 -1.447265,-2.125 -0.192209,-0.0299 -0.373137,-0.0381 -0.544922,-0.0195 z m 7.082031,0.33789 c -1.37316,0.0979 -1.353413,0.18838 0.123047,0.57422 0.9625,0.25152 1.75,0.87314 1.75,1.38281 0,0.50968 0.505707,0.92773 1.123047,0.92773 0.77551,0 0.737053,-0.46364 -0.123047,-1.5 -0.68469,-0.825 -1.977897,-1.44856 -2.873047,-1.38476 z m 70.484374,10.3125 c -0.43799,0.0133 -0.56774,1.09614 -0.50976,3.62305 l 0.10156,4.44921 1.05664,-3.29296 c 0.77016,-2.40412 0.74117,-3.60649 -0.10352,-4.45118 -0.21899,-0.21899 -0.39892,-0.33256 -0.54492,-0.32812 z M 19.658203,131.30273 c -0.53273,0 -1.019321,0.3375 -1.082031,0.75 -0.0627,0.4125 -0.26045,1.9625 -0.4375,3.44532 -0.17706,1.48283 -0.815342,3.62033 -1.419922,4.75 -0.69363,1.29606 -0.732396,2.05468 -0.103516,2.05468 0.54815,0 1.485625,-1.9125 2.083985,-4.25 0.59835,-2.3375 1.277222,-4.8125 1.507812,-5.5 0.23058,-0.6875 -0.01605,-1.25 -0.548828,-1.25 z m 128.730467,2.22266 c -0.19091,0.0173 -0.38752,0.0851 -0.58789,0.20899 -1.52924,0.94511 -1.39796,2.56835 0.20703,2.56835 1.03548,0 1.37098,4.09134 1.57031,19.10352 0.13952,10.50737 0.4783,19.68918 0.75196,20.40234 0.27367,0.71316 0.0195,3.87986 -0.56446,7.03907 -0.93482,5.05695 -0.85545,5.89687 0.67188,7.01367 0.95416,0.6977 2.2103,3.22041 2.79102,5.60547 0.58071,2.38506 1.35232,4.11093 1.71484,3.83593 0.36252,-0.275 1.35445,0.4 2.20312,1.5 1.53861,1.99425 1.54648,1.99502 3.07422,0.0156 1.5156,-1.96365 1.53902,-1.96095 2.11719,0.25 0.61157,2.33863 1.94805,2.77604 4.16992,1.36719 1.01504,-0.64361 0.2525,-2.5935 -3.31445,-8.46875 -2.54864,-4.19796 -5.04359,-9.05759 -5.54297,-10.79883 -1.04082,-3.62912 1.09116,-19.9883 3.94531,-30.28125 1.28719,-4.642 1.43389,-6.2687 0.53516,-5.92383 -0.68136,0.26146 -1.53464,-0.003 -1.89648,-0.58789 -0.44738,-0.72388 -1.58506,-0.58589 -3.55274,0.43164 -4.15183,2.14699 -5.38453,1.89427 -3.54883,-0.72656 0.85618,-1.22237 1.55664,-3.26319 1.55664,-4.53516 0,-1.9766 -0.28042,-2.16209 -1.93359,-1.27734 -2.68599,1.43749 -2.76538,1.38084 -2.36524,-1.71485 0.36225,-2.80248 -0.66558,-5.14824 -2.00195,-5.02734 z m -101.109373,3.38086 c -0.488798,0.0424 -0.844841,0.69017 -1.345703,2.12695 -1.26115,3.61772 -6.178346,9.45878 -7.572266,8.99414 -0.59412,-0.19804 -2.036165,0.7488 -3.203125,2.10547 l -2.121094,2.4668 -2.242187,-3.14844 c -1.23308,-1.73169 -2.648411,-3.14844 -3.144531,-3.14844 -0.49613,0 -1.902504,1.73966 -3.126953,3.86719 -2.19222,3.80907 -2.253024,3.8375 -3.876954,1.83203 -1.63536,-2.01958 -1.667344,-2.00907 -3.990234,1.13282 -1.28838,1.74261 -2.916921,3.16796 -3.619141,3.16796 -0.70221,0 -1.74315,0.86976 -2.3125,1.9336 -1.3562495,2.53419 -1.3361258,10.79941 0.02734,11.2539 0.73705,0.24568 0.706674,1.26715 -0.09766,3.33399 -0.63768,1.63856 -1.4684064,6.46601 -1.8476564,10.72851 -0.6389199,7.18092 -0.5514149,7.75 1.2031254,7.75 1.25578,0 1.702495,0.49513 1.328125,1.47071 -0.31047,0.80908 0.147235,2.18239 1.015625,3.05078 1.75722,1.75722 4.975607,1.52567 4.585937,-0.33008 -0.39941,-1.90216 1.580402,-1.37543 2.701172,0.71875 1.11358,2.08075 5.048828,1.80206 5.048828,-0.35742 0,-0.66762 -2.025,-2.6679 -4.5,-4.44531 l -4.5,-3.23243 0,-6.8789 c 0,-3.78336 0.454326,-7.15867 1.009766,-7.50195 0.55545,-0.34328 2.859704,-3.99487 5.121093,-8.11524 3.42308,-6.23703 4.761255,-7.75293 7.990235,-9.04492 2.13317,-0.85352 3.878906,-1.9997 3.878906,-2.54883 0,-0.54912 0.652369,-0.74914 1.449219,-0.44336 0.87659,0.33638 1.692136,-0.21337 2.066406,-1.39258 0.34021,-1.07193 1.51041,-1.94922 2.59961,-1.94922 2.625809,0 6.884765,-4.69854 6.884765,-7.5957 0,-1.26736 0.70275,-2.69855 1.5625,-3.17969 1.36151,-0.76194 1.375965,-1.03086 0.109375,-2.08203 -0.448455,-0.37218 -0.788752,-0.56451 -1.082031,-0.53906 z m 114.458983,28.39648 c -1.1861,0 -3.30209,13.83795 -2.64648,17.30665 0.58592,3.09994 4.04246,9.69335 5.08203,9.69335 0.28309,0 0.51562,-1.54397 0.51562,-3.42968 0,-1.88572 -0.72022,-4.14796 -1.59961,-5.02735 -1.29982,-1.29982 -1.50763,-3.18263 -1.11132,-10.07031 0.26813,-4.65989 0.16041,-8.47266 -0.24024,-8.47266 z m -131.617186,5.9336 c -0.633471,0.17604 -1.26565,2.05622 -1.740235,5.59765 -0.98518,7.3515 0.418298,12.45233 2.867188,10.41993 1.15571,-0.95915 1.806774,-0.9862 2.683594,-0.10938 1.4373,1.4373 5.757812,1.52978 5.757812,0.12305 0,-0.70185 0.64401,-0.69057 2,0.0351 1.18956,0.63663 2,0.68315 2,0.11524 0,-0.52515 -2.283046,-1.71224 -5.072265,-2.63867 -5.53773,-1.83933 -5.747664,-2.11778 -6.746094,-8.91407 -0.48124,-3.2758 -1.116529,-4.80495 -1.75,-4.6289 z"
       transform="translate(304.23929,414.34534)"
       id="path4135"
       inkscape:connector-curvature="0" />
  </g>
</svg>
