<?xml version="1.0" encoding="UTF-8" standalone="no"?>
<!-- Created with Inkscape (http://www.inkscape.org/) -->

<svg
   xmlns:dc="http://purl.org/dc/elements/1.1/"
   xmlns:cc="http://creativecommons.org/ns#"
   xmlns:rdf="http://www.w3.org/1999/02/22-rdf-syntax-ns#"
   xmlns:svg="http://www.w3.org/2000/svg"
   xmlns="http://www.w3.org/2000/svg"
   xmlns:sodipodi="http://sodipodi.sourceforge.net/DTD/sodipodi-0.dtd"
   xmlns:inkscape="http://www.inkscape.org/namespaces/inkscape"
   width="69.006691mm"
   height="57.873795mm"
   viewBox="0 0 244.5119 205.06463"
   id="svg2"
   version="1.1"
   inkscape:version="0.91 r13725"
   sodipodi:docname="inactive_husky.svg">
  <defs
     id="defs4" />
  <sodipodi:namedview
     id="base"
     pagecolor="#ffffff"
     bordercolor="#666666"
     borderopacity="1.0"
     inkscape:pageopacity="0.0"
     inkscape:pageshadow="2"
     inkscape:zoom="1.4"
     inkscape:cx="-46.858767"
     inkscape:cy="100.42871"
     inkscape:document-units="px"
     inkscape:current-layer="inactive_dog"
     showgrid="false"
     fit-margin-top="0"
     fit-margin-left="0"
     fit-margin-right="0"
     fit-margin-bottom="0"
     inkscape:window-width="1366"
     inkscape:window-height="744"
     inkscape:window-x="0"
     inkscape:window-y="24"
     inkscape:window-maximized="1" />
  <metadata
     id="metadata7">
    <rdf:RDF>
      <cc:Work
         rdf:about="">
        <dc:format>image/svg+xml</dc:format>
        <dc:type
           rdf:resource="http://purl.org/dc/dcmitype/StillImage" />
        <dc:title></dc:title>
      </cc:Work>
    </rdf:RDF>
  </metadata>
  <g
     inkscape:groupmode="layer"
     id="layer2"
     inkscape:label="inactive"
     style="display:inline">
    <g
       transform="translate(-304.2393,-414.34534)"
       id="inactive_dog"
       inkscape:label="inactive_dog">
      <title
         id="title4203">inactive_dog</title>
      <path
         inkscape:connector-curvature="0"
         id="path4163"
         d="m 461.70262,618.91386 c -4.60706,-0.36416 -4.7543,-0.47888 -5.85339,-4.56058 -0.6201,-2.30286 -1.911,-5.31615 -2.86869,-6.69619 -1.56258,-2.25172 -1.69608,-4.79523 -1.30117,-24.78927 0.24204,-12.25406 0.10755,-23.05406 -0.29887,-24 -0.40642,-0.94595 -0.64045,-2.9574 -0.52007,-4.4699 0.12038,-1.5125 -0.26504,-2.75 -0.85649,-2.75 -0.59146,0 -1.07537,-0.625 -1.07537,-1.38889 0,-0.76389 -0.5625,-1.33048 -1.25,-1.25908 -5.01737,0.52102 -15.82893,-1.77839 -20.35586,-4.32929 -4.1893,-2.36067 -5.72229,-2.73811 -8.5399,-2.10263 -2.55869,0.57707 -4.31206,0.30361 -6.87854,-1.07281 -1.89447,-1.01601 -4.35152,-1.86705 -5.4601,-1.89119 -1.10858,-0.0241 -3.8156,-0.71688 -6.0156,-1.53942 -2.2,-0.82255 -4.78235,-1.67596 -5.73855,-1.89649 -0.95621,-0.22053 -3.31412,-1.60269 -5.2398,-3.07148 -1.94716,-1.48517 -4.17542,-2.41182 -5.02013,-2.08768 -0.83539,0.32057 -2.70291,0.13269 -4.15006,-0.41751 -3.54603,-1.3482 -5.50728,0.53712 -7.65869,7.36216 -2.3973,7.60513 -7.01769,14.05795 -13.80601,19.28145 -3.23772,2.49136 -5.88676,4.95345 -5.88676,5.47131 0,0.51785 -0.62206,0.94155 -1.38235,0.94155 -1.96786,0 -9.28257,7.57208 -12.31765,12.75106 -2.26231,3.86034 -2.49564,5.1031 -1.94579,10.36373 0.81151,7.76416 1.72621,9.29312 6.39669,10.69243 2.12788,0.63753 4.92183,2.27997 6.20878,3.64986 2.23676,2.38092 2.25616,2.52494 0.44012,3.26682 -1.04489,0.42686 -5.49736,0.7761 -9.89437,0.7761 l -7.99457,0 -2.8213,-9 c -1.55171,-4.95 -3.05009,-9.675 -3.32972,-10.5 -0.40476,-1.19417 -0.90105,-1.01867 -2.43413,0.86078 -1.44953,1.77703 -1.92571,3.92615 -1.92571,8.69128 l 0,6.33049 5.5,4.29555 c 3.025,2.36256 5.5,4.62315 5.5,5.02354 0,1.34396 -3.45732,2.5907 -9.15142,3.3001 -5.34282,0.66563 -5.8206,0.5424 -8.74966,-2.25677 -4.05636,-3.87648 -4.65702,-8.51107 -3.14069,-24.23299 0.91251,-9.4612 0.91375,-12.47307 0.005,-13.03449 -0.64976,-0.40157 -1.41658,-2.81676 -1.70403,-5.36708 -0.39213,-3.47889 -0.8248,-4.38619 -1.73245,-3.63291 -1.71188,1.42073 -4.00273,-11.31381 -3.22166,-17.90876 0.37971,-3.20603 0.22095,-5.06874 -0.43202,-5.06874 -1.28715,0 -0.28448,-4.87524 2.18983,-10.64757 0.99662,-2.32503 1.4345,-4.36798 0.97306,-4.53988 -0.46144,-0.1719 0.29286,-3.91255 1.67622,-8.31255 3.7452,-11.91221 4.41871,-13.50254 7.03548,-16.61239 1.31742,-1.56567 2.13378,-3.26985 1.81412,-3.78706 -0.31966,-0.51722 0.43559,-1.76393 1.67833,-2.77048 1.24274,-1.00654 3.48695,-3.7177 4.98714,-6.02479 2.76216,-4.24787 8.96474,-8.53322 14.06329,-9.7163 1.53499,-0.35619 2.52093,-1.08442 2.19098,-1.6183 -0.36611,-0.59238 2.13751,-0.97068 6.42416,-0.97068 3.86323,0 8.95229,-0.64936 11.30901,-1.44302 5.79144,-1.95035 14.82644,-2.17617 29.78495,-0.74446 6.875,0.65803 19.37277,1.14481 27.77282,1.08176 14.32424,-0.10753 15.48997,-0.26201 18.76904,-2.48725 3.8933,-2.64206 10.56447,-3.35126 18.95814,-2.01539 4.35485,0.69308 5.36267,0.51008 7.81079,-1.41834 1.60995,-1.26818 2.57937,-2.81717 2.2691,-3.62571 -0.34338,-0.89483 0.45807,-1.78778 2.18921,-2.43914 1.502,-0.56514 4.40697,-2.6559 6.4555,-4.64613 2.81365,-2.73359 3.46135,-3.9358 2.64824,-4.91554 -0.81777,-0.98536 -0.43117,-1.5909 1.60926,-2.52058 1.56946,-0.71509 3.6974,-3.22032 5.12012,-6.02791 1.33898,-2.64236 3.32624,-5.36118 4.41614,-6.04183 1.0899,-0.68066 1.98164,-1.76761 1.98164,-2.41545 0,-0.64784 1.51332,-2.11318 3.36294,-3.2563 2.22358,-1.37425 3.94559,-3.60407 5.08271,-6.58156 0.94587,-2.47673 2.09299,-4.50315 2.54916,-4.50315 0.45617,0 1.11605,-1.6967 1.46641,-3.77046 1.09789,-6.49839 2.10077,-7.08623 4.66752,-2.73591 l 2.28079,3.86565 1.11394,-2.72524 1.11395,-2.72524 1.18129,2.59265 c 0.64971,1.42596 1.18129,4.11719 1.18129,5.9805 0,5.37814 1.62642,8.28682 5.83392,10.43332 4.79077,2.44407 8.77116,7.01019 9.66718,11.08973 0.56148,2.55641 1.69411,3.51702 6.96447,5.90672 3.46167,1.56959 7.92305,3.39146 9.91419,4.0486 4.32553,1.42755 4.47061,2.70661 1.02507,9.0372 -3.21622,5.90926 -5.53935,7.00248 -14.88045,7.00248 -7.70418,0 -10.51822,1.28849 -10.52996,4.82143 -0.0121,3.63272 -2.15186,9.17857 -3.54142,9.17857 -0.79915,0 -1.453,0.63459 -1.453,1.41021 0,0.77562 -1.34964,4.26312 -2.99921,7.75 -1.64957,3.48689 -2.99957,7.08979 -3,8.00646 -4.3e-4,0.91666 -0.46644,1.82188 -1.03557,2.01159 -0.56913,0.18971 -1.62433,2.88106 -2.34488,5.98078 -1.4798,6.3659 -5.75874,14.28929 -8.70494,16.11912 -4.4939,2.79106 -9.8052,12.30834 -12.77877,22.89816 -4.87602,17.36506 -7.4235,31.61553 -6.87579,38.46284 0.57703,7.21393 4.49382,16.4606 8.90572,21.02443 3.54553,3.66763 2.99904,5.56194 -1.51684,5.2578 -8.48274,-0.5713 -11.29785,0.0109 -12.46777,2.57861 -1.1958,2.6245 -0.97622,2.59051 -11.4079,1.76594 z m 9.0446,-2.1327 c 1.01504,-0.64361 0.2517,-2.59356 -3.31525,-8.46881 -2.54864,-4.19796 -5.04249,-9.05732 -5.54187,-10.79856 -1.04082,-3.62912 1.08999,-19.98864 3.94414,-30.28159 1.28719,-4.642 1.4342,-6.26819 0.53547,-5.92332 -0.68136,0.26146 -1.53489,-0.004 -1.89674,-0.58912 -0.44738,-0.72388 -1.58381,-0.5857 -3.55149,0.43183 -4.15183,2.14699 -5.38531,1.89465 -3.54961,-0.72618 0.85618,-1.22237 1.5567,-3.26321 1.5567,-4.53518 0,-1.9766 -0.28109,-2.16224 -1.93426,-1.27749 -2.68599,1.43749 -2.76404,1.38087 -2.36389,-1.71482 0.414,-3.20284 -0.9871,-5.80977 -2.59005,-4.8191 -1.52924,0.94512 -1.39906,2.5691 0.20593,2.5691 1.03548,0 1.37208,4.09214 1.57142,19.10432 0.13952,10.50737 0.47759,19.68781 0.75125,20.40097 0.27367,0.71316 0.0197,3.88146 -0.56426,7.04067 -0.93483,5.05695 -0.85433,5.89575 0.673,7.01255 0.95416,0.6977 2.20996,3.21996 2.79068,5.60502 0.58071,2.38506 1.35244,4.11147 1.71496,3.83647 0.36252,-0.275 1.3535,0.4 2.20217,1.5 1.53861,1.99425 1.54745,1.99429 3.07519,0.0149 1.5156,-1.96365 1.53846,-1.96095 2.11663,0.25 0.61157,2.33863 1.94801,2.77718 4.16988,1.36833 z m -141.81865,-6.58035 c 0,-0.66762 -2.025,-2.6681 -4.5,-4.44551 l -4.5,-3.23165 0,-6.87885 c 0,-3.78336 0.45445,-7.15971 1.00989,-7.503 0.55545,-0.34328 2.86013,-3.99536 5.12152,-8.11573 3.42308,-6.23703 4.76112,-7.75146 7.9901,-9.04345 2.13317,-0.85352 3.87849,-2.00114 3.87849,-2.55027 0,-0.54912 0.65196,-0.74823 1.44881,-0.44245 0.87659,0.33638 1.69312,-0.2138 2.06739,-1.39301 0.34021,-1.07193 1.50974,-1.94897 2.59894,-1.94897 2.62581,0 6.88486,-4.69917 6.88486,-7.59633 0,-1.26736 0.70344,-2.69795 1.56319,-3.17909 1.36151,-0.76194 1.37557,-1.03052 0.10898,-2.08169 -1.19588,-0.99249 -1.62733,-0.71029 -2.42871,1.58857 -1.26115,3.61772 -6.17812,9.45699 -7.57204,8.99235 -0.59412,-0.19804 -2.035,0.74992 -3.20196,2.10659 l -2.12174,2.46667 -2.24195,-3.14854 c -1.23308,-1.73169 -2.64788,-3.14853 -3.144,-3.14853 -0.49613,0 -1.90387,1.7407 -3.12832,3.86823 -2.19222,3.80907 -2.25149,3.83708 -3.87542,1.83161 -1.63536,-2.01958 -1.66876,-2.01012 -3.99165,1.13177 -1.28838,1.74261 -2.91704,3.16839 -3.61926,3.16839 -0.70221,0 -1.74259,0.87042 -2.31194,1.93426 -1.35625,2.53419 -1.33627,10.79871 0.0272,11.2532 0.73705,0.24568 0.70733,1.2665 -0.097,3.33334 -0.63768,1.63856 -1.46973,6.4667 -1.84898,10.7292 -0.63892,7.18092 -0.55051,7.75 1.20403,7.75 1.25578,0 1.70345,0.49548 1.32908,1.47106 -0.31047,0.80908 0.146,2.18156 1.01439,3.04995 1.75722,1.75722 4.9758,1.52535 4.58613,-0.3304 -0.39941,-1.90216 1.58096,-1.37499 2.70173,0.71919 1.11358,2.08075 5.04827,1.80257 5.04827,-0.35691 z m 150.68618,0.35506 c -0.50717,-1.93941 -0.41874,-1.97589 1.21211,-0.5 1.94992,1.76466 4.10171,2.10621 4.10171,0.65107 0,-0.51754 -0.45643,-1.22308 -1.01429,-1.56785 -1.81839,-1.12383 -4.66778,-7.84022 -6.43447,-15.16691 -1.62027,-6.7195 -1.62691,-7.88061 -0.10448,-18.26198 0.8942,-6.09743 2.69897,-14.79136 4.0106,-19.31985 1.31164,-4.52848 2.20935,-8.40905 1.99493,-8.62348 -0.80007,-0.80007 -5.32459,2.90335 -5.94844,4.86893 -0.35631,1.12264 -1.03229,1.80356 -1.50217,1.51316 -1.17979,-0.72915 0.42728,-5.89035 2.92736,-9.40139 1.13903,-1.59961 2.07096,-3.41555 2.07096,-4.03541 0,-0.61985 0.675,-1.38603 1.5,-1.70261 0.825,-0.31659 1.5,-1.37746 1.5,-2.35751 0,-1.08312 0.68608,-1.72743 1.74952,-1.64301 1.11898,0.0888 1.8674,-0.69143 2.07661,-2.16499 0.19468,-1.37125 1.35812,-2.69587 2.87405,-3.27223 1.40082,-0.53259 3.42738,-2.08763 4.50346,-3.45565 1.07608,-1.36801 2.33204,-2.2552 2.79102,-1.97154 1.09846,0.67888 5.05804,-5.77938 5.33811,-8.7067 0.1205,-1.2595 0.71668,-3.19 1.32485,-4.29 0.60817,-1.1 1.41975,-3.4625 1.80352,-5.25 0.38378,-1.7875 1.04079,-3.25 1.46003,-3.25 0.41924,0 1.33417,-1.9125 2.03317,-4.25 0.699,-2.3375 2.34523,-6.37254 3.65829,-8.96676 1.31305,-2.59421 2.38737,-5.68681 2.38737,-6.87244 0,-1.74167 0.27081,-1.93093 1.41005,-0.98545 1.14912,0.95369 1.53724,0.59111 2.09743,-1.9594 0.53547,-2.438 0.2165,-3.63086 -1.44336,-5.3977 -3.47531,-3.6993 -0.99513,-4.72309 9.55728,-3.94514 9.54312,0.70354 10.43675,0.007 2.71325,-2.11571 -3.20554,-0.88088 -3.99224,-1.35682 -2.33465,-1.41241 1.375,-0.0461 4.23992,0.39928 6.36649,0.98976 2.12658,0.59047 4.93338,0.80582 6.23735,0.47854 3.07365,-0.77143 6.01205,-5.10606 4.62206,-6.8183 -0.55588,-0.68474 -1.17161,-2.03662 -1.36829,-3.00417 -0.47968,-2.35966 -12.85761,-8.30458 -12.85761,-6.1753 0,1.26707 -0.35905,1.24532 -2.48981,-0.1508 -2.30971,-1.51338 -2.53633,-1.51017 -3.13286,0.0444 -0.54737,1.42643 -1.14398,1.1902 -4.01018,-1.58783 -3.19939,-3.10098 -3.36715,-3.15102 -3.36715,-1.00455 0,1.60456 -0.51105,2.17245 -1.76401,1.96018 -1.01466,-0.1719 -3.56347,1.50061 -6,3.93714 -4.16723,4.16723 -5.41537,7.6762 -3.01503,8.47631 0.92162,0.30721 0.81814,1.43248 -0.42211,4.58984 -1.55796,3.96618 -1.54837,4.23352 0.18512,5.16126 1.0055,0.53813 2.96346,3.00966 4.35103,5.49228 l 2.52285,4.51387 -2.33444,0.58591 c -2.56174,0.64295 -3.48893,2.93783 -3.50976,8.68684 l -0.0136,3.77033 -4.09695,-2.09011 c -2.25333,-1.14956 -4.69339,-1.86123 -5.42238,-1.5815 -1.56905,0.60211 -0.89033,4.04608 1.12739,5.72065 1.89779,1.57502 1.75611,5.92354 -0.24057,7.38354 -1.40713,1.02893 -1.46372,1.70515 -0.4099,4.89827 1.04283,3.15981 0.9773,4.07893 -0.4457,6.25069 -1.55359,2.37109 -1.75667,2.42531 -2.95345,0.78862 -1.19326,-1.63188 -1.41122,-1.56513 -3.0485,0.93367 -1.58993,2.42655 -1.88267,2.52805 -2.97657,1.03205 -0.93294,-1.27588 -2.05874,-1.50055 -4.87329,-0.97254 -2.01304,0.37765 -3.66008,1.16503 -3.66008,1.74973 0,0.63001 -1.00215,0.81157 -2.45999,0.44568 -1.84419,-0.46286 -2.73192,-0.10933 -3.54625,1.41226 -1.39529,2.60713 -0.34546,4.52511 1.59527,2.91445 1.19077,-0.98825 1.41097,-0.12461 1.41097,5.53383 0,5.29295 -0.64416,8.17249 -3.059,13.67449 -1.68245,3.83331 -4.00668,10.84775 -5.16496,15.58765 -1.84579,7.55339 -1.95959,9.32658 -0.92121,14.35395 0.68351,3.30921 0.9042,8.12291 0.52164,11.37791 -0.39766,3.38349 -0.23473,6.52344 0.40704,7.84401 0.58858,1.21113 1.60403,5.23955 2.25655,8.95205 0.7941,4.51804 1.64495,6.75 2.57317,6.75 0.76272,0 1.38677,0.675 1.38677,1.5 0,0.86088 0.90185,1.5 2.11663,1.5 1.65535,0 1.9974,-0.45593 1.56955,-2.09205 z m -10.68618,-7.33652 c 0,-1.88572 -0.71951,-4.14808 -1.5989,-5.02747 -1.29982,-1.29982 -1.50771,-3.18375 -1.1114,-10.07143 0.26813,-4.65989 0.15971,-8.47253 -0.24094,-8.47253 -1.1861,0 -3.30227,13.83719 -2.64666,17.30589 0.58592,3.09995 4.04363,9.69411 5.0832,9.69411 0.28309,0 0.5147,-1.54286 0.5147,-3.42857 z M 338.17095,601.4903 c 1.4373,1.4373 5.75762,1.52917 5.75762,0.12244 0,-0.70185 0.64401,-0.69052 2,0.0352 1.18956,0.63663 2,0.68346 2,0.11555 0,-0.52515 -2.28209,-1.71281 -5.07131,-2.63924 -5.53773,-1.83933 -5.74884,-2.11826 -6.74727,-8.91455 -0.96248,-6.5516 -2.54054,-6.11305 -3.48971,0.96982 -0.98518,7.3515 0.41835,12.45189 2.86724,10.41949 1.15571,-0.95915 1.80661,-0.98551 2.68343,-0.10869 z M 322.9394,552.39792 c 0.59835,-2.3375 1.27657,-4.8125 1.50716,-5.5 0.23058,-0.6875 -0.0166,-1.25 -0.54938,-1.25 -0.53273,0 -1.01992,0.3375 -1.08263,0.75 -0.0627,0.4125 -0.25889,1.96322 -0.43594,3.44604 -0.17706,1.48283 -0.81658,3.62033 -1.42116,4.75 -0.69363,1.29606 -0.73149,2.05396 -0.10261,2.05396 0.54815,0 1.4862,-1.9125 2.08456,-4.25 z m 36.18953,-2.5 c 1.416,-1.5125 3.5053,-4.55 4.6429,-6.75 1.13759,-2.2 2.08824,-3.4375 2.11254,-2.75 0.15009,4.24502 4.55133,-3.09075 5.93742,-9.89621 0.58278,-2.86132 1.19142,-3.4388 4.14493,-3.93269 3.40979,-0.57019 2.80167,-1.46171 -1.44857,-2.12359 -1.53767,-0.23946 -2.31813,0.9201 -4,5.94302 -1.39524,4.16688 -2.62061,6.24367 -3.68771,6.25 -0.90642,0.005 -2.42129,1.8358 -3.5,4.22905 -2.31649,5.13946 -6.25574,9.98877 -7.49302,9.22409 -0.49987,-0.30894 -0.90885,0.13985 -0.90885,0.99731 0,2.28184 1.29211,1.91547 4.20036,-1.19098 z m -33.70032,-14.75 c 0.0651,-0.55 0.38743,-1.9 0.71623,-3 1.86573,-6.24159 1.8062,-7.26086 -0.45861,-7.85312 -1.76195,-0.46076 -1.96742,-0.83712 -0.99041,-1.81413 1.75855,-1.75855 1.53021,-3.32451 -0.26725,-1.83275 -1.81805,1.50884 -1.98413,5.66794 -0.25,6.26036 0.99203,0.33891 0.97758,1.13001 -0.07,3.83334 -0.72601,1.87346 -1.51861,5.4313 -1.76133,7.9063 l -0.44132,4.5 1.70216,-3.5 c 0.93619,-1.925 1.75544,-3.95 1.82055,-4.5 z m 126.65695,0.25699 c -0.87599,-0.87599 -1.1322,-0.0762 -1.0549,3.29301 l 0.10209,4.45 1.0549,-3.29301 c 0.77016,-2.40412 0.7426,-3.60531 -0.10209,-4.45 z m -68.15699,-9.25699 c -0.68469,-0.825 -1.97729,-1.4478 -2.87244,-1.384 -1.37316,0.0979 -1.35402,0.18749 0.12244,0.57333 0.9625,0.25152 1.75,0.87432 1.75,1.38399 0,0.50968 0.5051,0.92668 1.12244,0.92668 0.77551,0 0.73766,-0.46364 -0.12244,-1.5 z m -56,-14.96386 c 0,-1.73463 0.66069,-4.02739 1.4682,-5.09501 1.92683,-2.5475 1.91522,-4.44113 -0.0272,-4.44113 -0.92379,0 -1.26829,-0.4704 -0.84549,-1.15451 0.44208,-0.7153 0.27432,-0.88306 -0.44098,-0.44098 -1.53217,0.94693 -1.47382,3.31485 0.0955,3.87498 0.87526,0.3124 0.59949,1.1618 -0.91989,2.83333 -1.50167,1.65204 -2.01158,3.19795 -1.65583,5.01996 0.28273,1.44803 0.0217,2.93709 -0.58011,3.30902 -0.60179,0.37193 -1.09417,1.16942 -1.09417,1.7722 0,0.60279 0.9,0.28149 2,-0.714 1.19465,-1.08114 2,-3.07997 2,-4.96386 z m 198.93176,-66.21562 c -1.44231,-3.79358 -1.95528,-4.42402 -3.04942,-3.7478 -0.62017,0.38328 -0.56325,1.10684 0.15519,1.9725 0.62406,0.75194 0.80138,1.90641 0.39405,2.56548 -0.46851,0.75808 -0.31645,0.93618 0.41391,0.48479 0.69098,-0.42705 1.15451,-0.0639 1.15451,0.90451 0,0.88992 0.43281,1.35055 0.96179,1.02361 0.61335,-0.37906 0.60247,-1.5395 -0.03,-3.20309 z m -4.57013,0.17948 c 0.31658,-0.825 0.13972,-1.5 -0.39301,-1.5 -0.53274,0 -0.96862,0.675 -0.96862,1.5 0,0.825 0.17686,1.5 0.39301,1.5 0.21616,0 0.65203,-0.675 0.96862,-1.5 z m -13.43552,-6.91097 c 1.63026,-1.96434 -0.51629,-3.17404 -2.58525,-1.45695 -1.34695,1.11786 -1.51737,1.02298 -1.1925,-0.66391 0.20846,-1.08249 1.04787,-1.97811 1.86534,-1.99026 1.94252,-0.0289 1.68849,-8.87045 -0.39178,-13.63607 l -1.45877,-3.34184 -0.0816,4.16667 c -0.045,2.30053 0.42934,4.33697 1.05918,4.54691 0.73116,0.24372 0.25612,1.79959 -1.32306,4.33334 -3.04784,4.89014 -3.99177,7.3624 -3.26192,8.54332 0.8779,1.42046 6.06844,1.06749 7.37034,-0.50121 z m 3.07389,-11.08903 c 0,-1.375 -0.17254,-2.5 -0.38342,-2.5 -0.21089,0 -0.59848,1.125 -0.86133,2.5 -0.26285,1.375 -0.0903,2.5 0.38342,2.5 0.47373,0 0.86133,-1.125 0.86133,-2.5 z"
         style="opacity:0.75;fill:#999999" />
      <text
         sodipodi:linespacing="125%"
         id="text4157"
         y="530.09784"
         x="308.51428"
         style="font-style:normal;font-weight:normal;font-size:40px;line-height:125%;font-family:sans-serif;letter-spacing:0px;word-spacing:0px;fill:#ff0000;fill-opacity:1;stroke:none;stroke-width:1px;stroke-linecap:butt;stroke-linejoin:miter;stroke-opacity:1"
         xml:space="preserve"><tspan
           style="font-weight:bold;font-size:50.00000381px"
           y="530.09784"
           x="308.51428"
           id="tspan4159"
           sodipodi:role="line">INJURED</tspan></text>
    </g>
  </g>
</svg>
